<svg xmlns="http://www.w3.org/2000/svg" viewBox="0 0 399.18 295.91"><defs><style>.cls-1{fill:#f04d52;}.cls-2{fill:#ccce3e;}.cls-3,.cls-7{fill:#343e5a;}.cls-4{fill:#e6e6e5;}.cls-5{fill:#1fbcbd;}.cls-6{fill:#8583bf;}.cls-7{stroke:#f04d52;}.cls-7,.cls-8,.cls-9{stroke-miterlimit:10;}.cls-8{fill:none;}.cls-8,.cls-9{stroke:#000;stroke-linecap:round;stroke-width:1.77px;}.cls-10{fill:#f04f53;}</style></defs><title>biologicalData</title><g id="Layer_2" data-name="Layer 2"><g id="Layer_1-2" data-name="Layer 1"><circle class="cls-1" cx="249.46" cy="28.4" r="4.69"/><circle class="cls-2" cx="249.46" cy="47.17" r="4.69"/><circle class="cls-3" cx="268.23" cy="65.94" r="4.69"/><circle class="cls-4" cx="268.23" cy="84.72" r="4.69"/><circle class="cls-2" cx="287.01" cy="84.72" r="4.69"/><circle class="cls-5" cx="211.92" cy="84.72" r="4.69"/><circle class="cls-6" cx="287.01" cy="103.49" r="4.69"/><circle class="cls-6" cx="211.92" cy="103.49" r="4.69"/><circle class="cls-5" cx="287.01" cy="122.26" r="4.69"/><circle class="cls-2" cx="211.92" cy="122.26" r="4.69"/><circle class="cls-6" cx="287.01" cy="141.04" r="4.69"/><circle class="cls-3" cx="211.92" cy="141.04" r="4.69"/><circle class="cls-5" cx="287.01" cy="159.81" r="4.69"/><circle class="cls-3" cx="305.78" cy="159.81" r="4.69"/><circle class="cls-5" cx="211.92" cy="159.81" r="4.69"/><circle class="cls-4" cx="268.23" cy="103.49" r="4.69"/><circle class="cls-5" cx="268.23" cy="122.26" r="4.69"/><circle class="cls-3" cx="230.69" cy="122.26" r="4.69"/><circle class="cls-6" cx="268.23" cy="141.04" r="4.69"/><circle class="cls-5" cx="230.69" cy="141.04" r="4.69"/><circle class="cls-3" cx="268.23" cy="159.81" r="4.69"/><circle class="cls-3" cx="230.69" cy="159.81" r="4.69"/><circle class="cls-6" cx="249.46" cy="65.94" r="4.69"/><circle class="cls-6" cx="249.46" cy="84.72" r="4.69"/><circle class="cls-1" cx="249.46" cy="103.49" r="4.69"/><circle class="cls-5" cx="249.46" cy="122.26" r="4.69"/><circle class="cls-6" cx="249.46" cy="141.04" r="4.69"/><circle class="cls-1" cx="249.46" cy="159.81" r="4.69"/><circle class="cls-4" cx="287.01" cy="178.58" r="4.69"/><circle class="cls-6" cx="211.92" cy="178.58" r="4.69"/><circle class="cls-6" cx="287.01" cy="197.35" r="4.69"/><circle class="cls-5" cx="211.92" cy="197.35" r="4.69"/><circle class="cls-6" cx="287.01" cy="216.13" r="4.69"/><circle class="cls-1" cx="211.92" cy="216.13" r="4.69"/><circle class="cls-3" cx="287.01" cy="234.9" r="4.69"/><circle class="cls-6" cx="305.78" cy="178.58" r="4.69"/><circle class="cls-5" cx="305.78" cy="197.35" r="4.69"/><circle class="cls-1" cx="305.78" cy="216.13" r="4.69"/><circle class="cls-6" cx="305.78" cy="234.9" r="4.69"/><circle class="cls-4" cx="324.55" cy="234.9" r="4.69"/><circle class="cls-5" cx="211.92" cy="234.9" r="4.69"/><circle class="cls-1" cx="193.14" cy="178.58" r="4.69"/><circle class="cls-5" cx="193.14" cy="197.35" r="4.69"/><circle class="cls-1" cx="193.14" cy="216.13" r="4.69"/><circle class="cls-1" cx="193.14" cy="234.9" r="4.69"/><circle class="cls-5" cx="174.37" cy="122.26" r="4.69"/><circle class="cls-2" cx="174.37" cy="141.04" r="4.69"/><circle class="cls-6" cx="174.37" cy="159.81" r="4.69"/><circle class="cls-6" cx="174.37" cy="178.58" r="4.69"/><circle class="cls-6" cx="174.37" cy="197.35" r="4.69"/><circle class="cls-2" cx="174.37" cy="216.13" r="4.69"/><circle class="cls-1" cx="174.37" cy="234.9" r="4.69"/><circle class="cls-6" cx="268.23" cy="178.58" r="4.69"/><circle class="cls-6" cx="230.69" cy="178.58" r="4.69"/><circle class="cls-1" cx="268.23" cy="197.35" r="4.69"/><circle class="cls-1" cx="230.69" cy="197.35" r="4.69"/><circle class="cls-1" cx="268.23" cy="216.13" r="4.69"/><circle class="cls-6" cx="230.69" cy="216.13" r="4.69"/><circle class="cls-2" cx="268.23" cy="234.9" r="4.69"/><circle class="cls-5" cx="230.69" cy="234.9" r="4.69"/><circle class="cls-6" cx="249.46" cy="234.9" r="4.69"/><circle class="cls-2" cx="249.46" cy="178.58" r="4.69"/><circle class="cls-2" cx="249.46" cy="197.35" r="4.69"/><circle class="cls-2" cx="249.46" cy="216.13" r="4.69"/><circle class="cls-3" cx="343.69" cy="159.81" r="4.69"/><circle class="cls-5" cx="381.23" cy="178.58" r="4.69"/><circle class="cls-6" cx="381.23" cy="197.35" r="4.69"/><circle class="cls-2" cx="381.23" cy="216.13" r="4.69"/><circle class="cls-4" cx="381.23" cy="234.9" r="4.69"/><circle class="cls-1" cx="362.46" cy="216.13" r="4.69"/><circle class="cls-4" cx="362.46" cy="234.9" r="4.69"/><circle class="cls-6" cx="343.69" cy="234.9" r="4.69"/><circle class="cls-3" cx="343.69" cy="178.58" r="4.69"/><circle class="cls-2" cx="343.69" cy="197.35" r="4.69"/><circle class="cls-4" cx="343.69" cy="216.13" r="4.69"/><circle class="cls-6" cx="42.24" cy="122.26" r="4.69"/><circle class="cls-4" cx="42.24" cy="141.04" r="4.69"/><circle class="cls-5" cx="42.24" cy="159.81" r="4.69"/><circle class="cls-4" cx="98.56" cy="141.04" r="4.69"/><circle class="cls-5" cx="98.56" cy="159.81" r="4.69"/><circle class="cls-5" cx="61.01" cy="159.81" r="4.69"/><circle class="cls-6" cx="79.78" cy="122.26" r="4.69"/><circle class="cls-6" cx="79.78" cy="141.04" r="4.69"/><circle class="cls-1" cx="79.78" cy="159.81" r="4.69"/><circle class="cls-1" cx="117.33" cy="178.58" r="4.69"/><circle class="cls-5" cx="42.24" cy="178.58" r="4.69"/><circle class="cls-5" cx="117.33" cy="197.35" r="4.69"/><circle class="cls-4" cx="42.24" cy="197.35" r="4.69"/><circle class="cls-4" cx="117.33" cy="216.13" r="4.69"/><circle class="cls-5" cx="42.24" cy="216.13" r="4.69"/><circle class="cls-1" cx="117.33" cy="234.9" r="4.69"/><circle class="cls-1" cx="136.1" cy="178.58" r="4.69"/><circle class="cls-1" cx="136.1" cy="197.35" r="4.69"/><circle class="cls-2" cx="136.1" cy="216.13" r="4.69"/><circle class="cls-5" cx="136.1" cy="234.9" r="4.69"/><circle class="cls-6" cx="42.24" cy="234.9" r="4.69"/><circle class="cls-6" cx="23.47" cy="178.58" r="4.69"/><circle class="cls-1" cx="23.47" cy="197.35" r="4.69"/><circle class="cls-1" cx="23.47" cy="216.13" r="4.69"/><circle class="cls-2" cx="23.47" cy="234.9" r="4.69"/><circle class="cls-2" cx="4.69" cy="122.26" r="4.69"/><circle class="cls-5" cx="4.69" cy="141.04" r="4.69"/><circle class="cls-6" cx="4.69" cy="159.81" r="4.69"/><circle class="cls-5" cx="4.69" cy="178.58" r="4.69"/><circle class="cls-6" cx="4.69" cy="197.35" r="4.69"/><circle class="cls-1" cx="4.69" cy="216.13" r="4.69"/><circle class="cls-3" cx="4.69" cy="234.9" r="4.69"/><circle class="cls-6" cx="98.56" cy="178.58" r="4.69"/><circle class="cls-5" cx="61.01" cy="178.58" r="4.69"/><circle class="cls-1" cx="98.56" cy="197.35" r="4.69"/><circle class="cls-5" cx="61.01" cy="197.35" r="4.69"/><circle class="cls-5" cx="98.56" cy="216.13" r="4.69"/><circle class="cls-3" cx="61.01" cy="216.13" r="4.69"/><circle class="cls-4" cx="98.56" cy="234.9" r="4.69"/><circle class="cls-2" cx="61.01" cy="234.9" r="4.69"/><circle class="cls-3" cx="79.78" cy="234.9" r="4.69"/><circle class="cls-2" cx="79.78" cy="178.58" r="4.69"/><circle class="cls-5" cx="79.78" cy="197.35" r="4.69"/><circle class="cls-5" cx="79.78" cy="216.13" r="4.69"/><circle class="cls-1" cx="42.24" cy="47.17" r="4.69"/><circle class="cls-6" cx="42.24" cy="65.94" r="4.69"/><circle class="cls-1" cx="42.24" cy="84.72" r="4.69"/><circle class="cls-1" cx="42.24" cy="103.49" r="4.69"/><circle class="cls-6" cx="4.69" cy="9.63" r="4.69"/><circle class="cls-1" cx="4.69" cy="28.4" r="4.69"/><circle class="cls-2" cx="4.69" cy="47.17" r="4.69"/><circle class="cls-1" cx="4.69" cy="65.94" r="4.69"/><circle class="cls-4" cx="4.69" cy="84.72" r="4.69"/><circle class="cls-4" cx="4.69" cy="103.49" r="4.69"/><circle class="cls-5" cx="79.78" cy="84.72" r="4.69"/><circle class="cls-5" cx="79.78" cy="103.49" r="4.69"/><circle class="cls-5" cx="287.01" cy="253.67" r="4.69"/><circle class="cls-4" cx="211.92" cy="253.67" r="4.69"/><circle class="cls-6" cx="287.01" cy="272.45" r="4.69"/><circle class="cls-1" cx="211.92" cy="272.45" r="4.69"/><circle class="cls-3" cx="287.01" cy="291.22" r="4.69"/><circle class="cls-1" cx="305.78" cy="253.67" r="4.69"/><circle class="cls-4" cx="305.78" cy="272.45" r="4.69"/><circle class="cls-6" cx="305.78" cy="291.22" r="4.69"/><circle class="cls-6" cx="324.55" cy="253.67" r="4.69"/><circle class="cls-1" cx="324.55" cy="272.45" r="4.69"/><circle class="cls-6" cx="324.55" cy="291.22" r="4.69"/><circle class="cls-5" cx="211.92" cy="291.22" r="4.69"/><circle class="cls-5" cx="193.14" cy="253.67" r="4.69"/><circle class="cls-6" cx="193.14" cy="272.45" r="4.69"/><circle class="cls-1" cx="193.14" cy="291.22" r="4.69"/><circle class="cls-1" cx="174.37" cy="253.67" r="4.69"/><circle class="cls-4" cx="174.37" cy="272.45" r="4.69"/><circle class="cls-5" cx="174.37" cy="291.22" r="4.69"/><circle class="cls-6" cx="268.23" cy="253.67" r="4.69"/><circle class="cls-1" cx="230.69" cy="253.67" r="4.69"/><circle class="cls-2" cx="268.23" cy="272.45" r="4.69"/><circle class="cls-3" cx="230.69" cy="272.45" r="4.69"/><circle class="cls-6" cx="268.23" cy="291.22" r="4.69"/><circle class="cls-5" cx="230.69" cy="291.22" r="4.69"/><circle class="cls-3" cx="249.46" cy="291.22" r="4.69"/><circle class="cls-6" cx="249.46" cy="253.67" r="4.69"/><circle class="cls-3" cx="249.46" cy="272.45" r="4.69"/><circle class="cls-5" cx="381.23" cy="253.67" r="4.69"/><circle class="cls-2" cx="381.23" cy="272.45" r="4.69"/><circle class="cls-5" cx="381.23" cy="291.22" r="4.69"/><circle class="cls-5" cx="362.46" cy="253.67" r="4.69"/><circle class="cls-1" cx="362.46" cy="272.45" r="4.69"/><circle class="cls-6" cx="362.46" cy="291.22" r="4.69"/><circle class="cls-5" cx="343.69" cy="291.22" r="4.69"/><circle class="cls-5" cx="343.69" cy="253.67" r="4.69"/><circle class="cls-3" cx="343.69" cy="272.45" r="4.69"/><circle class="cls-5" cx="117.33" cy="253.67" r="4.69"/><circle class="cls-2" cx="42.24" cy="253.67" r="4.69"/><circle class="cls-3" cx="117.33" cy="272.45" r="4.69"/><circle class="cls-1" cx="42.24" cy="272.45" r="4.69"/><circle class="cls-2" cx="117.33" cy="291.22" r="4.69"/><circle class="cls-1" cx="136.1" cy="253.67" r="4.69"/><circle class="cls-3" cx="136.1" cy="272.45" r="4.69"/><circle class="cls-5" cx="136.1" cy="291.22" r="4.69"/><circle class="cls-4" cx="154.88" cy="253.67" r="4.69"/><circle class="cls-1" cx="154.88" cy="272.45" r="4.69"/><circle class="cls-2" cx="154.88" cy="291.22" r="4.69"/><circle class="cls-5" cx="42.24" cy="291.22" r="4.69"/><circle class="cls-2" cx="23.47" cy="253.67" r="4.69"/><circle class="cls-5" cx="23.47" cy="272.45" r="4.69"/><circle class="cls-4" cx="23.47" cy="291.22" r="4.69"/><circle class="cls-5" cx="4.69" cy="253.67" r="4.69"/><circle class="cls-2" cx="4.69" cy="272.45" r="4.69"/><circle class="cls-5" cx="4.69" cy="291.22" r="4.69"/><circle class="cls-5" cx="98.56" cy="253.67" r="4.69"/><circle class="cls-2" cx="61.01" cy="253.67" r="4.69"/><circle class="cls-5" cx="98.56" cy="272.45" r="4.69"/><circle class="cls-2" cx="61.01" cy="272.45" r="4.69"/><circle class="cls-2" cx="98.56" cy="291.22" r="4.69"/><circle class="cls-4" cx="61.01" cy="291.22" r="4.69"/><circle class="cls-2" cx="79.78" cy="291.22" r="4.69"/><circle class="cls-1" cx="79.78" cy="253.67" r="4.69"/><circle class="cls-7" cx="79.78" cy="272.45" r="4.69"/><path class="cls-8" d="M328.81-38.69h29a.94.94,0,0,1,.94.94V55.88A15.42,15.42,0,0,1,343.3,71.31h0a15.42,15.42,0,0,1-15.42-15.42V-37.75a.94.94,0,0,1,.94-.94Z" transform="translate(326.99 359.61) rotate(-90)"/><rect class="cls-9" x="255.44" y="10.86" width="30.85" height="10.89" rx="1.69" ry="1.69" transform="translate(254.56 287.18) rotate(-90)"/><path class="cls-10" d="M390.53,16.31h0a7.4,7.4,0,0,1-7.39,7.4H345.68a.94.94,0,0,1-.64-1.63L358.51,9.53a2.31,2.31,0,0,1,1.58-.62h23.05A7.39,7.39,0,0,1,390.53,16.31Z"/></g></g></svg>