<svg xmlns="http://www.w3.org/2000/svg" viewBox="0 0 400.36 306.76"><defs><style>.cls-1{fill:#f04d52;}.cls-1,.cls-2{stroke:#fff;stroke-miterlimit:10;stroke-width:6.76px;}.cls-2{fill:#343e5a;}</style></defs><title>solvingChronicDiseases</title><g id="Layer_2" data-name="Layer 2"><g id="Layer_1-2" data-name="Layer 1"><path class="cls-1" d="M198.38,102.15a26.51,26.51,0,1,1,0-47.21V3.38H3.38v150h73.9a26.5,26.5,0,1,0,47.2,0h73.9Z"/><path class="cls-2" d="M198.38,3.38V54.94a26.5,26.5,0,1,0,0,47.21v51.22H274a26.55,26.55,0,1,1,47.46,0H397V3.38Z"/><path class="cls-2" d="M210.39,201.69a26.35,26.35,0,0,0-12,2.9v-51.2H124.49a26.5,26.5,0,1,1-47.23,0H3.38v150h195V251.8a26.5,26.5,0,1,0,12-50.11Z"/></g></g></svg>